<svg width="125" height="20" viewBox="0 0 125 20" fill="none" xmlns="http://www.w3.org/2000/svg">
<path d="M0.925 19V2.7H4.95L7.575 9.95C7.74167 10.4333 7.9 10.9333 8.05 11.45C8.2 11.95 8.35833 12.45 8.525 12.95H8.625C8.79167 12.45 8.94167 11.95 9.075 11.45C9.225 10.9333 9.38333 10.4333 9.55 9.95L12.125 2.7H16.125V19H12.775V13.025C12.775 12.625 12.7917 12.1833 12.825 11.7C12.8583 11.2167 12.9 10.7333 12.95 10.25C13 9.75 13.05 9.26667 13.1 8.8C13.15 8.31667 13.2 7.875 13.25 7.475H13.15L11.825 11.35L9.5 17.575H7.475L5.15 11.35L3.85 7.475H3.75C3.8 7.875 3.85 8.31667 3.9 8.8C3.95 9.26667 4 9.75 4.05 10.25C4.1 10.7333 4.14167 11.2167 4.175 11.7C4.20833 12.1833 4.225 12.625 4.225 13.025V19H0.925ZM24.993 19.3C24.2096 19.3 23.4513 19.1583 22.718 18.875C21.9846 18.575 21.3346 18.15 20.768 17.6C20.218 17.05 19.7763 16.375 19.443 15.575C19.1096 14.7583 18.943 13.8333 18.943 12.8C18.943 11.7667 19.1096 10.85 19.443 10.05C19.7763 9.23333 20.218 8.55 20.768 8C21.3346 7.45 21.9846 7.03333 22.718 6.75C23.4513 6.45 24.2096 6.3 24.993 6.3C25.7763 6.3 26.5263 6.45 27.243 6.75C27.9763 7.03333 28.618 7.45 29.168 8C29.7346 8.55 30.1846 9.23333 30.518 10.05C30.8513 10.85 31.018 11.7667 31.018 12.8C31.018 13.8333 30.8513 14.7583 30.518 15.575C30.1846 16.375 29.7346 17.05 29.168 17.6C28.618 18.15 27.9763 18.575 27.243 18.875C26.5263 19.1583 25.7763 19.3 24.993 19.3ZM24.993 16.325C25.743 16.325 26.3096 16.0083 26.693 15.375C27.0763 14.7417 27.268 13.8833 27.268 12.8C27.268 11.7167 27.0763 10.8583 26.693 10.225C26.3096 9.59167 25.743 9.275 24.993 9.275C24.2263 9.275 23.6513 9.59167 23.268 10.225C22.9013 10.8583 22.718 11.7167 22.718 12.8C22.718 13.8833 22.9013 14.7417 23.268 15.375C23.6513 16.0083 24.2263 16.325 24.993 16.325ZM36.1898 19L32.0148 6.6H35.7148L37.3148 12.45C37.4815 13.0667 37.6398 13.7 37.7898 14.35C37.9565 14.9833 38.1232 15.625 38.2898 16.275H38.3898C38.5398 15.625 38.6898 14.9833 38.8398 14.35C39.0065 13.7 39.1732 13.0667 39.3398 12.45L40.9648 6.6H44.4898L40.4398 19H36.1898ZM46.4258 19V6.6H50.1008V19H46.4258ZM48.2508 4.775C47.6341 4.775 47.1258 4.6 46.7258 4.25C46.3258 3.88333 46.1258 3.41667 46.1258 2.85C46.1258 2.28333 46.3258 1.825 46.7258 1.475C47.1258 1.125 47.6341 0.949998 48.2508 0.949998C48.8841 0.949998 49.3924 1.125 49.7758 1.475C50.1758 1.825 50.3758 2.28333 50.3758 2.85C50.3758 3.41667 50.1758 3.88333 49.7758 4.25C49.3924 4.6 48.8841 4.775 48.2508 4.775ZM58.885 19.3C58.0016 19.3 57.1766 19.1583 56.41 18.875C55.6433 18.575 54.9766 18.15 54.41 17.6C53.8433 17.0333 53.4016 16.35 53.085 15.55C52.7683 14.75 52.61 13.8333 52.61 12.8C52.61 11.8 52.7766 10.9 53.11 10.1C53.4433 9.28333 53.8766 8.6 54.41 8.05C54.96 7.48333 55.585 7.05 56.285 6.75C56.985 6.45 57.71 6.3 58.46 6.3C59.3433 6.3 60.11 6.45 60.76 6.75C61.4266 7.05 61.9766 7.46667 62.41 8C62.86 8.53333 63.1933 9.16667 63.41 9.9C63.6266 10.6167 63.735 11.4 63.735 12.25C63.735 12.5833 63.7183 12.9 63.685 13.2C63.6516 13.5 63.6183 13.725 63.585 13.875H56.16C56.3266 14.775 56.6933 15.4417 57.26 15.875C57.8433 16.2917 58.5516 16.5 59.385 16.5C60.2683 16.5 61.16 16.225 62.06 15.675L63.285 17.9C62.6516 18.3333 61.9433 18.675 61.16 18.925C60.3933 19.175 59.635 19.3 58.885 19.3ZM56.135 11.45H60.61C60.61 10.75 60.4516 10.1833 60.135 9.75C59.8183 9.31667 59.285 9.1 58.535 9.1C57.9516 9.1 57.435 9.29167 56.985 9.675C56.5516 10.0583 56.2683 10.65 56.135 11.45ZM66.5744 19V2.7H72.1744C73.0744 2.7 73.9161 2.79167 74.6994 2.975C75.4827 3.14167 76.1661 3.43333 76.7494 3.85C77.3327 4.25 77.7911 4.79167 78.1244 5.475C78.4744 6.14167 78.6494 6.96667 78.6494 7.95C78.6494 8.9 78.4744 9.725 78.1244 10.425C77.7911 11.125 77.3327 11.7 76.7494 12.15C76.1661 12.6 75.4911 12.9333 74.7244 13.15C73.9577 13.3667 73.1411 13.475 72.2744 13.475H70.2494V19H66.5744ZM70.2494 10.55H72.0494C74.0494 10.55 75.0494 9.68333 75.0494 7.95C75.0494 7.1 74.7827 6.5 74.2494 6.15C73.7161 5.8 72.9494 5.625 71.9494 5.625H70.2494V10.55ZM84.892 19.3C83.542 19.3 82.5587 18.8583 81.942 17.975C81.342 17.0917 81.042 15.8667 81.042 14.3V6.6H84.717V13.825C84.717 14.725 84.842 15.3417 85.092 15.675C85.342 16.0083 85.7337 16.175 86.267 16.175C86.7337 16.175 87.1253 16.0667 87.442 15.85C87.7587 15.6333 88.1003 15.2833 88.467 14.8V6.6H92.142V19H89.142L88.867 17.275H88.792C88.2587 17.9083 87.6837 18.4083 87.067 18.775C86.467 19.125 85.742 19.3 84.892 19.3ZM98.751 19.3C98.1176 19.3 97.5843 19.2 97.151 19C96.7176 18.8 96.3676 18.525 96.101 18.175C95.851 17.8083 95.6676 17.375 95.551 16.875C95.4343 16.3583 95.376 15.7833 95.376 15.15V1.475H99.051V15.3C99.051 15.6833 99.1176 15.95 99.251 16.1C99.401 16.25 99.551 16.325 99.701 16.325C99.7843 16.325 99.851 16.325 99.901 16.325C99.9676 16.325 100.051 16.3083 100.151 16.275L100.601 19C100.401 19.0833 100.143 19.15 99.826 19.2C99.526 19.2667 99.1676 19.3 98.751 19.3ZM106.179 19.3C105.363 19.3 104.521 19.1417 103.654 18.825C102.804 18.5083 102.063 18.0917 101.429 17.575L103.079 15.275C103.646 15.7083 104.188 16.0333 104.704 16.25C105.221 16.4667 105.746 16.575 106.279 16.575C106.829 16.575 107.229 16.4833 107.479 16.3C107.729 16.1167 107.854 15.8583 107.854 15.525C107.854 15.325 107.779 15.15 107.629 15C107.496 14.8333 107.304 14.6833 107.054 14.55C106.821 14.4167 106.554 14.3 106.254 14.2C105.954 14.0833 105.646 13.9583 105.329 13.825C104.946 13.675 104.563 13.5 104.179 13.3C103.796 13.1 103.446 12.8583 103.129 12.575C102.813 12.275 102.554 11.9333 102.354 11.55C102.154 11.15 102.054 10.6917 102.054 10.175C102.054 9.60833 102.163 9.08333 102.379 8.6C102.613 8.11667 102.938 7.70833 103.354 7.375C103.771 7.04167 104.271 6.78333 104.854 6.6C105.438 6.4 106.088 6.3 106.804 6.3C107.754 6.3 108.588 6.46667 109.304 6.8C110.021 7.11667 110.646 7.475 111.179 7.875L109.529 10.075C109.079 9.74167 108.638 9.48333 108.204 9.3C107.771 9.11667 107.338 9.025 106.904 9.025C105.971 9.025 105.504 9.35 105.504 10C105.504 10.2 105.571 10.375 105.704 10.525C105.838 10.6583 106.013 10.7833 106.229 10.9C106.463 11.0167 106.721 11.1333 107.004 11.25C107.304 11.35 107.613 11.4583 107.929 11.575C108.329 11.725 108.721 11.9 109.104 12.1C109.504 12.2833 109.863 12.5167 110.179 12.8C110.513 13.0833 110.779 13.4333 110.979 13.85C111.179 14.25 111.279 14.7333 111.279 15.3C111.279 15.8667 111.171 16.3917 110.954 16.875C110.738 17.3583 110.413 17.7833 109.979 18.15C109.546 18.5 109.013 18.7833 108.379 19C107.746 19.2 107.013 19.3 106.179 19.3ZM119.163 19.3C118.28 19.3 117.455 19.1583 116.688 18.875C115.922 18.575 115.255 18.15 114.688 17.6C114.122 17.0333 113.68 16.35 113.363 15.55C113.047 14.75 112.888 13.8333 112.888 12.8C112.888 11.8 113.055 10.9 113.388 10.1C113.722 9.28333 114.155 8.6 114.688 8.05C115.238 7.48333 115.863 7.05 116.563 6.75C117.263 6.45 117.988 6.3 118.738 6.3C119.622 6.3 120.388 6.45 121.038 6.75C121.705 7.05 122.255 7.46667 122.688 8C123.138 8.53333 123.472 9.16667 123.688 9.9C123.905 10.6167 124.013 11.4 124.013 12.25C124.013 12.5833 123.997 12.9 123.963 13.2C123.93 13.5 123.897 13.725 123.863 13.875H116.438C116.605 14.775 116.972 15.4417 117.538 15.875C118.122 16.2917 118.83 16.5 119.663 16.5C120.547 16.5 121.438 16.225 122.338 15.675L123.563 17.9C122.93 18.3333 122.222 18.675 121.438 18.925C120.672 19.175 119.913 19.3 119.163 19.3ZM116.413 11.45H120.888C120.888 10.75 120.73 10.1833 120.413 9.75C120.097 9.31667 119.563 9.1 118.813 9.1C118.23 9.1 117.713 9.29167 117.263 9.675C116.83 10.0583 116.547 10.65 116.413 11.45Z" fill="white"/>
</svg>
